<svg width="24" height="24" viewBox="0 0 24 24" fill="none" xmlns="http://www.w3.org/2000/svg">
<path fill-rule="evenodd" clip-rule="evenodd" d="M3.75 7.5C3.75 4.87665 5.87665 2.75 8.5 2.75H18.5C19.4665 2.75 20.25 3.5335 20.25 4.5V19.5C20.25 20.4665 19.4665 21.25 18.5 21.25H7.5C5.42893 21.25 3.75 19.5711 3.75 17.5V7.5ZM18.75 4.5V13.75H7.5C6.6558 13.75 5.87675 14.029 5.25 14.4997V7.5C5.25 5.70507 6.70507 4.25 8.5 4.25H11.7079C11.4446 6.23154 11.4683 8.24229 11.7794 10.22L11.8418 10.6166C11.8865 10.9006 12.0896 11.1341 12.3648 11.2176C12.6399 11.3012 12.9385 11.2201 13.1336 11.0089L14.5 9.52972L15.8664 11.0089C16.0615 11.2201 16.3601 11.3012 16.6353 11.2176C16.9104 11.1341 17.1135 10.9006 17.1582 10.6166L17.2206 10.22C17.5318 8.24228 17.5554 6.23154 17.2921 4.25H18.5C18.6381 4.25 18.75 4.36193 18.75 4.5ZM15.7779 4.25H13.2221C13.005 5.76418 12.9688 7.29819 13.1139 8.81967L13.7654 8.11431C14.1614 7.6857 14.8386 7.6857 15.2346 8.11431L15.8861 8.81967C16.0312 7.29819 15.995 5.76418 15.7779 4.25ZM7.5 15.25H18.75V19.5C18.75 19.6381 18.6381 19.75 18.5 19.75H7.5C6.25736 19.75 5.25 18.7426 5.25 17.5C5.25 16.2574 6.25736 15.25 7.5 15.25Z" fill="#D1D5DB"/>
</svg>
