<svg width="24" height="24" viewBox="0 0 24 24" fill="none" xmlns="http://www.w3.org/2000/svg">
<path fill-rule="evenodd" clip-rule="evenodd" d="M12.249 3.5C12.3743 3.5 12.4705 3.61113 12.4539 3.73537C12.17 5.86171 12.2051 8.01984 12.5593 10.1382L12.5743 10.2281C12.5918 10.3327 12.6717 10.4159 12.7756 10.4375C12.8794 10.4591 12.9859 10.4147 13.0436 10.3257L14.7137 7.753C14.7543 7.69053 14.8457 7.69053 14.8863 7.753L16.5564 10.3257C16.6141 10.4147 16.7206 10.4591 16.8244 10.4375C16.9283 10.4159 17.0082 10.3327 17.0257 10.2281L17.0407 10.1382C17.3949 8.01984 17.43 5.86171 17.1461 3.73537C17.1295 3.61113 17.2257 3.5 17.351 3.5L18.9143 3.5C19.7664 3.5 20.4571 4.19076 20.4571 5.04286V20.4714C20.4571 21.0395 19.9966 21.5 19.4286 21.5H7.6C5.78639 21.5 4.286 20.1589 4.03646 18.4143H4V8.12857C4 5.57228 6.07228 3.5 8.62857 3.5L12.249 3.5ZM7.6 15.8429H18.9143V19.9571H7.6C6.46387 19.9571 5.54286 19.0361 5.54286 17.9C5.54286 16.7639 6.46387 15.8429 7.6 15.8429Z" fill="#FCD34D"/>
</svg>
