<svg width="24" height="24" viewBox="0 0 24 24" fill="none" xmlns="http://www.w3.org/2000/svg">
<path d="M7.57013 3.28174C7.57013 2.85 7.22014 2.5 6.78839 2.5C6.35665 2.5 6.00665 2.85 6.00665 3.28174V5.17504C4.45039 5.39506 3.22092 6.62598 3.01279 8.19612L2.92258 8.87671C2.90728 8.99209 2.89266 9.10754 2.8787 9.22306C2.84168 9.52947 3.08309 9.79625 3.39173 9.79625H20.6082C20.9169 9.79625 21.1583 9.52947 21.1212 9.22305C21.1073 9.10754 21.0927 8.99209 21.0774 8.8767L20.9872 8.19612C20.779 6.626 19.5496 5.39509 17.9934 5.17505V3.28174C17.9934 2.85 17.6434 2.5 17.2116 2.5C16.7799 2.5 16.4299 2.85 16.4299 3.28174V5.01995C13.4825 4.75746 10.5175 4.75746 7.57013 5.01995V3.28174Z" fill="#FCD34D"/>
<path d="M21.3231 11.8554C21.314 11.5777 21.0845 11.3597 20.8067 11.3597H3.19329C2.91543 11.3597 2.68595 11.5777 2.67682 11.8554C2.61491 13.7396 2.72936 15.6276 3.01989 17.4947C3.23983 18.9081 4.38811 19.9938 5.81166 20.1341L7.05515 20.2568C10.3437 20.5811 13.6562 20.5811 16.9448 20.2568L18.1883 20.1341C19.6118 19.9938 20.7601 18.9081 20.9801 17.4947C21.2706 15.6276 21.385 13.7396 21.3231 11.8554Z" fill="#FCD34D"/>
</svg>
