<svg width="24" height="24" viewBox="0 0 24 24" fill="none" xmlns="http://www.w3.org/2000/svg">
<path fill-rule="evenodd" clip-rule="evenodd" d="M6.78839 2.5C7.22014 2.5 7.57013 2.85 7.57013 3.28174V5.01995C10.5175 4.75746 13.4825 4.75746 16.4299 5.01995V3.28174C16.4299 2.85 16.7799 2.5 17.2116 2.5C17.6434 2.5 17.9934 2.85 17.9934 3.28174V5.17505C19.5496 5.39509 20.779 6.626 20.9872 8.19612L21.0774 8.8767C21.4568 11.7393 21.424 14.6414 20.9801 17.4947C20.7601 18.9081 19.6118 19.9938 18.1883 20.1341L16.9448 20.2568C13.6562 20.5811 10.3437 20.5811 7.05515 20.2568L5.81166 20.1341C4.38811 19.9938 3.23983 18.9081 3.01989 17.4947C2.57591 14.6414 2.54313 11.7393 2.92258 8.87671L3.01279 8.19612C3.22092 6.62598 4.45039 5.39506 6.00665 5.17504V3.28174C6.00665 2.85 6.35665 2.5 6.78839 2.5ZM7.2524 6.62009C10.4098 6.30872 13.5902 6.30872 16.7475 6.62009L17.6913 6.71316C18.5947 6.80226 19.3179 7.50162 19.4372 8.40156L19.5274 9.08215C19.559 9.31991 19.5875 9.55797 19.613 9.79625H4.38695C4.41247 9.55797 4.44099 9.31992 4.4725 9.08215L4.56272 8.40157C4.68201 7.50162 5.40519 6.80226 6.30862 6.71316L7.2524 6.62009ZM4.26267 11.3597C4.16034 13.3277 4.26116 15.3031 4.56478 17.2543C4.6751 17.9633 5.25107 18.5078 5.9651 18.5782L7.20859 18.7008C10.3951 19.0151 13.6048 19.0151 16.7914 18.7008L18.0348 18.5782C18.7489 18.5078 19.3248 17.9633 19.4352 17.2543C19.7388 15.3031 19.8396 13.3277 19.7373 11.3597H4.26267Z" fill="#D1D5DB"/>
</svg>
