<svg width="32" height="32" viewBox="0 0 32 32" fill="none" xmlns="http://www.w3.org/2000/svg">
<rect width="32" height="32" rx="16" fill="#FCD34D"/>
<path d="M11.6456 13.1678C11.4455 13.9144 10.6782 14.3574 9.93171 14.1573C9.1852 13.9573 8.74219 13.19 8.94222 12.4435C9.14224 11.697 9.90956 11.254 10.6561 11.454C11.4026 11.654 11.8456 12.4213 11.6456 13.1678Z" fill="#2F2F2F" stroke="#2F2F2F" stroke-width="2"/>
<path d="M24.2027 16.5325C24.0027 17.279 23.2354 17.722 22.4888 17.522C21.7423 17.3219 21.2993 16.5546 21.4993 15.8081C21.6994 15.0616 22.4667 14.6186 23.2132 14.8186C23.9597 15.0186 24.4027 15.786 24.2027 16.5325Z" fill="#2F2F2F" stroke="#2F2F2F" stroke-width="2"/>
<path d="M8.43349 18.2058C8.94153 19.1033 10.5685 22.8595 15.2201 19.9238C17.3299 24.6712 21.9565 21.8293 21.9565 21.8293" stroke="#2F2F2F" stroke-width="2" stroke-linecap="round" stroke-linejoin="round"/>
</svg>
