<svg width="25" height="24" viewBox="0 0 25 24" fill="none" xmlns="http://www.w3.org/2000/svg">
<path fill-rule="evenodd" clip-rule="evenodd" d="M12.5198 3.5C12.6417 3.5 12.7352 3.60805 12.719 3.72883C12.443 5.79611 12.4772 7.89429 12.8215 9.9538L12.8361 10.0412C12.8531 10.1429 12.9308 10.2238 13.0318 10.2448C13.1328 10.2658 13.2363 10.2226 13.2924 10.1361L14.9161 7.63486C14.9556 7.57413 15.0445 7.57413 15.0839 7.63486L16.7076 10.1361C16.7638 10.2226 16.8672 10.2658 16.9682 10.2448C17.0692 10.2238 17.1469 10.1429 17.1639 10.0412L17.1785 9.9538C17.5228 7.89429 17.557 5.79611 17.281 3.72883C17.2648 3.60805 17.3583 3.5 17.4802 3.5L19 3.5C19.8284 3.5 20.5 4.17157 20.5 5V20C20.5 20.5523 20.0523 21 19.5 21H8C6.23676 21 4.77806 19.6961 4.53544 18H4.5V8C4.5 5.51472 6.51472 3.5 9 3.5L12.5198 3.5ZM8 15.5H19V19.5H8C6.89543 19.5 6 18.6046 6 17.5C6 16.3954 6.89543 15.5 8 15.5Z" fill="#34D399"/>
</svg>
