<svg width="25" height="24" viewBox="0 0 25 24" fill="none" xmlns="http://www.w3.org/2000/svg">
<path fill-rule="evenodd" clip-rule="evenodd" d="M4.25 8C4.25 5.37665 6.37665 3.25 9 3.25H19C19.9665 3.25 20.75 4.0335 20.75 5V20C20.75 20.9665 19.9665 21.75 19 21.75H8C5.92893 21.75 4.25 20.0711 4.25 18V8ZM19.25 5V14.25H8C7.1558 14.25 6.37675 14.529 5.75 14.9997V8C5.75 6.20507 7.20507 4.75 9 4.75H12.2079C11.9446 6.73154 11.9683 8.74229 12.2794 10.72L12.3418 11.1166C12.3865 11.4006 12.5896 11.6341 12.8648 11.7176C13.1399 11.8012 13.4385 11.7201 13.6336 11.5089L15 10.0297L16.3664 11.5089C16.5615 11.7201 16.8601 11.8012 17.1353 11.7176C17.4104 11.6341 17.6135 11.4006 17.6582 11.1166L17.7206 10.72C18.0318 8.74228 18.0554 6.73154 17.7921 4.75H19C19.1381 4.75 19.25 4.86193 19.25 5ZM16.2779 4.75H13.7221C13.505 6.26418 13.4688 7.79819 13.6139 9.31967L14.2654 8.61431C14.6614 8.1857 15.3386 8.1857 15.7346 8.61431L16.3861 9.31967C16.5312 7.79819 16.495 6.26418 16.2779 4.75ZM8 15.75H19.25V20C19.25 20.1381 19.1381 20.25 19 20.25H8C6.75736 20.25 5.75 19.2426 5.75 18C5.75 16.7574 6.75736 15.75 8 15.75Z" fill="#D4D4D4"/>
</svg>
