<svg width="24" height="24" viewBox="0 0 24 24" fill="none" xmlns="http://www.w3.org/2000/svg">
<path d="M19.2669 3.95825C14.4338 3.4856 9.56616 3.4856 4.73308 3.95825C4.29836 4.00076 3.93229 4.2989 3.79852 4.71096C3.2652 6.35388 3.2652 8.14606 3.79852 9.78898C3.93229 10.201 4.29836 10.4992 4.73308 10.5417C9.56616 11.0143 14.4338 11.0143 19.2669 10.5417C19.7016 10.4992 20.0677 10.201 20.2015 9.78898C20.7348 8.14606 20.7348 6.35388 20.2015 4.71096C20.0677 4.2989 19.7016 4.00076 19.2669 3.95825Z" fill="#4BD189"/>
<path d="M19.2669 13.4582C14.4338 12.9856 9.56616 12.9856 4.73308 13.4582C4.29836 13.5008 3.93229 13.7989 3.79852 14.211C3.2652 15.8539 3.2652 17.6461 3.79852 19.289C3.93229 19.701 4.29836 19.9992 4.73308 20.0417C9.56616 20.5143 14.4338 20.5143 19.2669 20.0417C19.7016 19.9992 20.0677 19.701 20.2015 19.289C20.7348 17.6461 20.7348 15.8539 20.2015 14.211C20.0677 13.7989 19.7016 13.5008 19.2669 13.4582Z" fill="#4BD189"/>
</svg>
